<?xml version="1.0" encoding="UTF-8" standalone="no"?>
<svg
   xmlns:dc="http://purl.org/dc/elements/1.1/"
   xmlns:cc="http://creativecommons.org/ns#"
   xmlns:rdf="http://www.w3.org/1999/02/22-rdf-syntax-ns#"
   xmlns:svg="http://www.w3.org/2000/svg"
   xmlns="http://www.w3.org/2000/svg"
   xmlns:xlink="http://www.w3.org/1999/xlink"
   xmlns:sodipodi="http://sodipodi.sourceforge.net/DTD/sodipodi-0.dtd"
   xmlns:inkscape="http://www.inkscape.org/namespaces/inkscape"
   sodipodi:docname="logo.svg"
   inkscape:version="1.0 (4035a4fb49, 2020-05-01)"
   id="svg919"
   version="1.1"
   viewBox="0 0 100 58"
   height="58mm"
   width="100mm">
  <defs
     id="defs913">
    <linearGradient
       inkscape:collect="always"
       xlink:href="#linearGradient899"
       id="linearGradient1498"
       gradientUnits="userSpaceOnUse"
       gradientTransform="translate(51.577348,-317.43205)"
       x1="93.960953"
       y1="413.13043"
       x2="93.960953"
       y2="423.27701" />
    <linearGradient
       id="linearGradient899"
       inkscape:collect="always">
      <stop
         id="stop895"
         offset="0"
         style="stop-color:#ff1400;stop-opacity:1" />
      <stop
         style="stop-color:#fdf301;stop-opacity:1"
         offset="0.49038181"
         id="stop903" />
      <stop
         id="stop897"
         offset="1"
         style="stop-color:#ff1400;stop-opacity:1" />
    </linearGradient>
    <linearGradient
       inkscape:collect="always"
       xlink:href="#linearGradient899"
       id="linearGradient1500"
       gradientUnits="userSpaceOnUse"
       gradientTransform="translate(51.577348,-317.43205)"
       x1="94.117012"
       y1="408.57971"
       x2="94.116837"
       y2="423.34167" />
    <linearGradient
       inkscape:collect="always"
       xlink:href="#linearGradient899"
       id="linearGradient1502"
       gradientUnits="userSpaceOnUse"
       gradientTransform="translate(51.577348,-317.43205)"
       x1="90.709824"
       y1="413.38849"
       x2="90.709824"
       y2="422.51398" />
    <linearGradient
       inkscape:collect="always"
       xlink:href="#linearGradient899"
       id="linearGradient1504"
       gradientUnits="userSpaceOnUse"
       gradientTransform="translate(52.844086,-317.43205)"
       x1="92.087708"
       y1="410.46793"
       x2="94.116837"
       y2="423.34167" />
  </defs>
  <sodipodi:namedview
     inkscape:snap-global="false"
     inkscape:snap-page="true"
     inkscape:window-maximized="1"
     inkscape:window-y="-8"
     inkscape:window-x="-8"
     inkscape:window-height="1057"
     inkscape:window-width="1920"
     inkscape:showpageshadow="false"
     showgrid="false"
     inkscape:document-rotation="0"
     inkscape:current-layer="layer1"
     inkscape:document-units="mm"
     inkscape:cy="-151.2043"
     inkscape:cx="79.951445"
     inkscape:zoom="0.7"
     inkscape:pageshadow="2"
     inkscape:pageopacity="0.0"
     borderopacity="1.0"
     bordercolor="#666666"
     pagecolor="#ffffff"
     id="base"
     inkscape:snap-bbox="true"
     inkscape:bbox-paths="true"
     inkscape:bbox-nodes="true"
     inkscape:snap-bbox-edge-midpoints="true"
     inkscape:snap-bbox-midpoints="true" />
  <metadata
     id="metadata916">
    <rdf:RDF>
      <cc:Work
         rdf:about="">
        <dc:format>image/svg+xml</dc:format>
        <dc:type
           rdf:resource="http://purl.org/dc/dcmitype/StillImage" />
        <dc:title />
      </cc:Work>
    </rdf:RDF>
  </metadata>
  <g
     style="opacity:0.997"
     id="layer1"
     inkscape:groupmode="layer"
     inkscape:label="Layer 1">
    <g
       transform="matrix(1.9883264,0,0,1.9883264,-240.57892,-181.2313)"
       id="g1490">
      <path
         id="path1482"
         d="m 145.62097,95.660554 c 0,0 -5.54256,3.61974 -5.26711,6.331106 0.27545,2.71135 5.18444,3.85329 5.18444,3.85329 0,0 -3.6829,-1.4636 -3.75072,-4.0186 -0.0678,-2.554966 3.83339,-6.165796 3.83339,-6.165796 z"
         style="fill:url(#linearGradient1498);fill-opacity:1;stroke:none;stroke-width:0.264583px;stroke-linecap:butt;stroke-linejoin:miter;stroke-opacity:1" />
      <path
         sodipodi:nodetypes="csscssc"
         id="path1484"
         d="m 145.69435,91.147663 c 0,0 -0.62196,1.80597 -0.0734,3.602891 0.54858,1.79691 4.36014,4.57578 4.27314,6.847116 -0.087,2.27132 -3.63957,4.34237 -3.63957,4.34237 0,0 4.47498,-1.58393 4.76198,-4.52737 0.28698,-2.943456 -3.01915,-5.262576 -4.01579,-6.763937 -0.99661,-1.50135 -1.30637,-3.50107 -1.30637,-3.50107 z"
         style="fill:url(#linearGradient1500);fill-opacity:1;stroke:none;stroke-width:0.264583px;stroke-linecap:butt;stroke-linejoin:miter;stroke-opacity:1" />
      <path
         id="path1486"
         d="m 144.49303,95.925963 c 0,0 -5.02835,3.254801 -4.7529,5.966167 0.27545,2.71134 2.54703,3.18979 2.54703,3.18979 0,0 -3.81559,-0.55132 -3.86683,-3.40485 -0.0512,-2.853547 6.0727,-5.751107 6.0727,-5.751107 z"
         style="fill:url(#linearGradient1502);fill-opacity:1;stroke:none;stroke-width:0.264583px;stroke-linecap:butt;stroke-linejoin:miter;stroke-opacity:1" />
      <path
         sodipodi:nodetypes="sscszcs"
         style="fill:url(#linearGradient1504);fill-opacity:1;stroke:none;stroke-width:0.264583px;stroke-linecap:butt;stroke-linejoin:miter;stroke-opacity:1"
         d="m 148.81127,95.946913 c 1.16832,1.295491 3.02302,3.168301 2.936,5.439637 -0.087,2.27132 -4.22603,4.55349 -4.22603,4.55349 0,0 6.0002,-1.28094 6.32196,-4.89097 0.30235,-3.392277 -2.64332,-4.723476 -4.47321,-6.036736 -1.8299,-1.313261 -2.82529,-2.855971 -2.82529,-2.855971 0,0 0.60837,1.951871 2.26657,3.79055 z"
         id="path1488" />
    </g>
    <path
       id="path1494"
       d="M 2.82856e-6,57.351748 H 99.999724"
       style="fill:none;stroke:#000000;stroke-width:0.926;stroke-linecap:butt;stroke-linejoin:miter;stroke-miterlimit:4;stroke-dasharray:none;stroke-opacity:1" />
  </g>
  <g
     style="display:none"
     inkscape:label="text path"
     id="layer4"
     inkscape:groupmode="layer">
    <path
       sodipodi:nodetypes="cccccssscssscccccccccccssscccssssscssscssscccscsscsccssssscsscccssscssscscssscccscsssssccccssccccsccccccccscccssscscsscccscccscccccccsccccccccccsscccssssscscssccccccssssccccccccccccccscccccccccccccccscccscccscsscccccccccsscscccsccsscscssscccccsssscsscccccccccccccsscccccccccsccccccscccccccccsscccccccccsssscccccsssscssssssscccsccss"
       style="fill:#ac0000;fill-opacity:1;stroke-width:0.231455"
       d="m 83.386142,53.545545 -1.45324,-0.06926 0.06435,-3.055565 0.06441,-3.055565 1.735891,0.03509 c 0.954746,0.02136 2.33483,0.04546 3.066795,0.05797 1.160902,0.02136 1.330866,0.08085 1.330866,0.477694 0,0.41826 -0.190687,0.460122 -2.372415,0.520803 l -2.372418,0.0659 -0.07234,0.625086 c -0.07112,0.614652 -0.04763,0.626277 1.388752,0.694405 1.283456,0.06072 1.460871,0.125396 1.460871,0.532154 0,0.406696 -0.177262,0.471347 -1.46041,0.532214 l -1.46042,0.06926 0.0717,0.740811 0.0717,0.740841 2.314569,0.04424 c 1.272994,0.02441 2.39991,0.05034 2.504221,0.05797 0.104343,0.0092 0.156515,0.22974 0.115632,0.493742 -0.06651,0.432264 -0.24713,0.484191 -1.809904,0.520773 -0.954749,0.02136 -2.38987,0.0092 -3.189135,-0.02746 z m 10.051787,-0.160788 c -0.532367,-0.532367 -0.476506,-1.213408 0.115022,-1.401105 0.339115,-0.1077 0.563213,-0.03905 0.705877,0.215705 0.16811,0.300522 0.614924,0.373532 2.280672,0.373532 h 2.071591 v -0.667434 -0.667434 l -2.287534,-0.09184 c -2.794345,-0.112276 -3.035953,-0.267266 -3.035953,-1.949551 0,-1.583616 0.238282,-1.715723 3.094379,-1.715723 2.655581,0 3.386384,0.223637 3.386384,1.03581 0,0.321422 -0.0955,0.584387 -0.212654,0.584387 -0.116853,0 -0.377279,0.06316 -0.578644,0.14065 -0.235231,0.09031 -0.366094,0.01525 -0.366094,-0.212959 0,-0.2633 -0.372953,-0.393455 -1.458827,-0.509759 -2.204947,-0.236147 -2.591663,-0.132108 -2.591663,0.698036 v 0.694374 l 2.497326,0.115633 c 2.824764,0.130887 2.934807,0.20045 2.934807,1.851675 0,1.690034 -0.06563,1.726036 -3.305475,1.811921 -2.423732,0.06438 -2.926505,0.01831 -3.249266,-0.305862 z m -92.99101738,0.05614 c -0.0152549,-0.03173 -0.0515617,-1.437901 -0.0823767,-3.12464 l -0.055528,-3.066792 h 0.66096615 c 0.64867073,0 0.66124073,0.02441 0.67545833,1.330871 0.00915,0.731963 0.035697,2.084161 0.061935,3.004858 0.034476,1.22546 -0.036307,1.706082 -0.2648258,1.793768 -0.3238014,0.124175 -0.94870489,0.163227 -0.99547655,0.06194 z M 7.0755808,53.311229 c -0.066512,-0.06651 -0.1211243,-1.457824 -0.1211243,-3.091506 0,-2.952625 0.00305,-2.970351 0.5369435,-2.970351 0.4225619,0 1.9556501,1.049021 2.70342,1.849814 0.06346,0.06804 0.658403,0.57139 1.321655,1.118279 l 1.205936,0.994348 0.06712,-2.033209 c 0.0659,-1.996628 0.07749,-2.033179 0.645711,-2.032965 l 0.578651,2.44e-4 0.06468,3.06069 0.06468,3.06066 h -0.536242 c -0.335334,0 -1.400068,-0.729003 -2.84163,-1.945554 -1.2679296,-1.070073 -2.3717467,-1.904519 -2.4528725,-1.854391 -0.081156,0.05004 -0.1333282,0.918531 -0.1159375,1.92975 0.03051,1.728935 5.491e-4,1.844476 -0.4840089,1.936982 -0.2834368,0.054 -0.5698636,0.04393 -0.6364972,-0.02136 z m 56.7470742,0.04027 c -0.08878,-0.08878 -0.161397,-1.498158 -0.161397,-3.13184 v -2.970381 h 2.980602 c 2.28516,0 3.04388,0.07627 3.251957,0.327005 0.163228,0.196483 0.243774,0.911604 0.201975,1.793767 l -0.06926,1.466824 -0.752252,0.07261 c -0.413714,0.03997 -0.748041,0.196179 -0.742946,0.347203 0.0061,0.151024 0.53853,0.691262 1.18534,1.200472 l 1.176095,0.925823 -0.853423,0.07261 c -0.752862,0.06438 -1.028488,-0.08085 -2.339193,-1.231714 -1.898325,-1.666633 -2.50059,-1.6796 -2.604751,-0.05614 -0.03875,0.604675 -0.160482,1.099423 -0.270317,1.099423 -0.109836,0 -0.343969,0.05522 -0.520163,0.122955 -0.176042,0.06773 -0.393029,0.05034 -0.481843,-0.03844 z m 5.085601,-4.072124 c 0.02746,-0.347386 -0.02441,-0.675306 -0.111361,-0.728668 -0.08756,-0.05339 -0.940498,-0.133633 -1.895274,-0.178483 -1.667792,-0.07811 -1.738911,-0.0601 -1.812074,0.456215 -0.15621,1.101498 0.05278,1.222897 1.977895,1.150253 1.768323,-0.06682 1.793646,-0.07628 1.840906,-0.699317 z m 6.490643,4.075541 c -0.09061,-0.09061 -0.165059,-1.501575 -0.165059,-3.135257 v -2.970381 h 0.694375 0.694374 l 0.04149,2.546049 c 0.02136,1.400282 0.04882,2.780336 0.05797,3.066763 0.0122,0.39074 -0.129972,0.537889 -0.570779,0.589298 -0.323038,0.03753 -0.661515,-0.0061 -0.752221,-0.09641 z M 19.221596,50.321168 c 0,-1.647076 0.04302,-3.038113 0.0955,-3.09117 0.05278,-0.05309 1.363149,-0.04424 2.912288,0.02136 l 2.816612,0.115633 0.675275,0.755882 c 0.552839,0.618802 0.675275,0.963106 0.675275,1.89863 0,2.550077 -0.750391,3.09056 -4.455511,3.209244 l -2.719618,0.08695 z m 5.303015,1.228603 c 0.346531,-0.313611 0.483368,-0.717471 0.483368,-1.426368 0,-1.474115 -0.749323,-1.989427 -2.763005,-1.900003 l -1.518938,0.06743 -0.06773,1.935303 -0.06773,1.935303 1.725246,-0.08695 c 1.279248,-0.06468 1.850146,-0.200145 2.20861,-0.524587 z m 7.066242,1.389145 c -0.40093,-0.292894 -0.449258,-0.62292 -0.449258,-3.066792 v -2.738567 h 0.68635 0.686351 l 0.0092,2.430295 0.0092,2.430295 1.909522,0.06712 1.909492,0.06712 0.04363,-0.645864 c 0.02441,-0.355257 0.05004,-1.479119 0.05797,-2.497539 l 0.01526,-1.851645 h 0.694375 0.694374 l -0.01525,2.702779 c -0.0092,1.862995 -0.109225,2.81588 -0.317635,3.066793 -0.415667,0.50082 -5.253226,0.530018 -5.929721,0.0357 z m 11.60297,-0.0357 c -0.468174,-0.468174 -0.466923,-1.167339 0.002,-1.347439 0.579169,-0.222112 0.791152,-0.166889 0.791152,0.206857 0,0.282827 0.385767,0.347172 2.083123,0.347172 h 2.083093 v -0.694374 -0.694344 h -2.098317 c -2.708149,0 -2.993722,-0.153465 -2.993722,-1.609427 0,-1.905098 -0.06834,-1.862445 2.987406,-1.862445 2.771183,0 3.261904,0.142176 3.261904,0.945135 0,0.526295 -0.933786,0.752648 -1.260669,0.305587 -0.195263,-0.266962 -0.653979,-0.331338 -1.98479,-0.27825 -1.696593,0.06773 -1.73229,0.08177 -1.80408,0.705571 l -0.07322,0.636497 h 2.301605 c 1.741504,0 2.370222,0.08268 2.583669,0.339881 0.358277,0.431684 0.351718,2.599747 -0.0092,3.034574 -0.413501,0.498226 -5.366689,0.468815 -5.870377,-0.03478 z m 12.547801,-2.124434 -0.0656,-2.488142 -1.330871,-0.06956 c -1.141497,-0.05949 -1.330872,-0.133633 -1.330872,-0.520773 0,-0.427443 0.183975,-0.451363 3.471842,-0.451363 3.287928,0 3.471811,0.02441 3.471811,0.451363 0,0.38714 -0.189161,0.461218 -1.330841,0.520773 l -1.330872,0.06956 -0.0656,2.488142 -0.0656,2.488142 h -0.678723 -0.678692 z m 30.987975,-6.461475 c -0.164449,-0.164448 -0.220587,-10.81194 -0.05797,-10.974894 0.05278,-0.05309 0.625822,-0.06041 1.272994,-0.01525 l 1.176675,0.08024 v 2.06076 2.06076 l 0.636534,0.0092 c 0.350067,0.0031 2.106738,0.06926 3.903703,0.143701 2.547087,0.105564 3.308217,0.06926 3.453206,-0.165363 0.102209,-0.165364 0.167805,-1.167617 0.145838,-2.226947 l -0.04027,-1.92597 H 98.610148 100 l -0.09214,4.802686 c -0.05061,2.641515 -0.102818,5.146679 -0.115632,5.567044 l -0.02441,0.764337 -1.215148,-0.06987 -1.215147,-0.06987 -0.06587,-2.372448 -0.06587,-2.372388 H 93.1634 89.121023 v 2.430295 2.430265 h -1.118675 c -0.615296,0 -1.188143,-0.06956 -1.273025,-0.15438 z M 0.36990467,43.950826 C 0.32078376,43.79187 0.21766035,41.344062 0.14047034,38.511616 L 1.248681e-4,33.36173 H 1.1189803 2.2378114 l 2.4161693,3.111429 c 1.328919,1.711299 2.5287508,3.117408 2.6662893,3.12467 0.1375996,0.0092 0.6011058,-0.481538 1.0301053,-1.086213 0.4290269,-0.604676 1.4782649,-2.038366 2.3316567,-3.185965 l 1.551611,-2.08654 1.052835,0.0836 1.052805,0.0836 -0.04699,5.358878 -0.04698,5.35894 h -1.041546 -1.04155 l -0.115632,-3.703321 -0.115633,-3.70329 -1.161419,1.620197 c -0.638786,0.891103 -1.628252,2.26841 -2.1988479,3.06066 -0.5705653,0.79222 -1.1936382,1.437474 -1.3845996,1.433873 -0.1909919,-0.0031 -1.3366686,-1.355035 -2.5460194,-3.00321 l -2.1988138,-2.99668 -0.063766,3.703747 -0.063461,3.703748 H 1.3866466 c -0.53996395,0 -0.96460053,-0.12082 -1.01655887,-0.289234 z M 17.838614,43.935571 c 0.0031,-0.150413 1.281537,-2.601944 2.840836,-5.447387 l 2.83507,-5.173592 1.100553,-0.04363 c 0.605286,-0.02441 1.178566,0.0122 1.27394,0.08146 0.0955,0.06895 1.04356,1.635543 2.107013,3.481391 1.063483,1.845848 2.429227,4.210517 3.034971,5.254779 0.605804,1.044295 1.001944,1.931855 0.880301,1.972403 -0.121734,0.04058 -0.754814,0.02136 -1.407116,-0.04699 -1.115746,-0.113496 -1.221981,-0.182449 -1.793676,-1.162304 l -0.607696,-1.041547 -3.359016,-0.06377 -3.35905,-0.06377 -0.625876,1.149918 c -0.344213,0.63247 -0.804882,1.198702 -1.023699,1.258349 -0.773151,0.210824 -1.902321,0.118379 -1.896555,-0.15499 z m 9.021041,-4.33399 c 0,-0.467808 -1.970481,-3.921039 -2.198848,-3.853429 -0.307082,0.09092 -2.190121,3.689927 -2.049593,3.917347 0.171466,0.27764 4.248441,0.216316 4.248441,-0.06407 z m 8.898818,4.291585 c -0.111056,-0.370695 -0.334175,-10.454853 -0.233401,-10.555627 0.05004,-0.05034 0.616819,-0.05553 1.259204,-0.0122 l 1.16798,0.07963 0.06651,2.003489 0.06651,2.003496 3.761167,0.06346 3.761167,0.06377 0.03448,-0.757987 c 0.02136,-0.416857 0.01526,-1.261523 -0.0122,-1.876999 -0.02441,-0.615445 0.07567,-1.266435 0.225468,-1.446596 0.337378,-0.406544 2.042698,-0.436383 2.18405,-0.03814 0.05644,0.158956 0.131498,2.606856 0.166584,5.439455 l 0.06346,5.150129 -1.206788,-2.13e-4 -1.206727,-2.44e-4 -0.06621,-2.256694 -0.06621,-2.256725 h -3.819014 -3.819014 l -0.115632,2.314571 -0.115633,2.314572 h -1.012958 c -0.557172,0 -1.044232,-0.104344 -1.082369,-0.23157 z m 17.923611,-4.629082 c -0.02746,-5.024276 -0.0061,-5.70605 0.18428,-5.902137 0.06194,-0.06377 2.473345,-0.104649 5.358726,-0.09092 l 5.246144,0.02441 0.0717,0.843019 c 0.06316,0.742824 0.0092,0.845246 -0.462923,0.861996 -0.294115,0.0092 -2.20123,0.03661 -4.23804,0.05797 l -3.703317,0.03875 v 1.15727 1.157301 l 2.48817,0.0656 2.488142,0.0656 v 0.917981 0.918012 h -2.430293 c -2.574274,0 -2.481707,-0.04332 -2.481707,1.157271 0,0.254452 0.0122,0.723297 0.02441,1.041546 l 0.02441,0.578651 h 4.28194 4.28194 v 1.043041 1.043011 l -5.554752,-0.05919 -5.554721,-0.05919 z m 16.754504,4.71872 c -0.847168,-0.244689 -1.13866,-0.666245 -1.255146,-1.81482 -0.06987,-0.687692 -2.44e-4,-0.821936 0.497555,-0.960603 1.214812,-0.338508 1.620197,-0.245605 1.620197,0.371244 v 0.57865 h 3.819014 3.819044 v -1.272994 -1.273025 h -3.923876 c -4.328346,0 -4.945744,-0.141871 -5.322846,-1.223721 -0.407307,-1.168407 -0.306838,-3.738193 0.169329,-4.325966 0.439495,-0.542801 1.899454,-0.912002 3.291163,-0.83231 0.445536,0.02441 2.142801,0.0659 3.771693,0.08939 2.807428,0.04088 2.991158,0.07261 3.529688,0.611266 0.350562,0.350558 0.568131,0.833865 0.568131,1.262102 0,0.604828 -0.111666,0.725007 -0.867951,0.935067 -1.161939,0.322673 -1.215148,0.313672 -1.215148,-0.205637 0,-0.24713 -0.09458,-0.507776 -0.210518,-0.579291 -0.21601,-0.133328 -6.728284,-0.214179 -6.85011,-0.08482 -0.03722,0.03966 -0.104344,0.540604 -0.149193,1.113458 l -0.08146,1.041547 4.244169,0.115632 4.244169,0.115632 0.579627,0.673903 c 0.544995,0.633721 0.57487,0.804118 0.500637,2.856061 -0.113802,3.147521 0.02441,3.072193 -5.601646,3.045679 -2.436427,-0.0122 -4.765979,-0.117768 -5.176764,-0.236756 z"
       id="path1492" />
  </g>
  <g
     inkscape:label="text"
     id="layer2"
     inkscape:groupmode="layer">
    <text
       id="text847"
       y="44.497093"
       x="-2.9501846"
       style="font-style:normal;font-variant:normal;font-weight:normal;font-stretch:normal;font-size:22.0172px;line-height:1.25;font-family:BankGothic;-inkscape-font-specification:BankGothic;letter-spacing:0px;stroke-width:0.550432;fill:#ac0000;fill-opacity:1;"
       xml:space="preserve"><tspan
         style="font-style:normal;font-variant:normal;font-weight:normal;font-stretch:normal;font-family:BankGothic;-inkscape-font-specification:BankGothic;stroke-width:0.550432;fill:#ac0000;fill-opacity:1;"
         y="44.497093"
         x="-2.9501846"
         id="tspan845"
         sodipodi:role="line">MAHESH</tspan></text>
    <text
       xml:space="preserve"
       style="font-style:normal;font-variant:normal;font-weight:normal;font-stretch:normal;font-size:12.4205px;line-height:1.25;font-family:BankGothic;-inkscape-font-specification:BankGothic;letter-spacing:2.111375px;stroke-width:0.310513;fill:#ac0000;fill-opacity:1;"
       x="-1.66422"
       y="53.715641"
       id="text851"><tspan
         sodipodi:role="line"
         id="tspan849"
         x="-1.66422"
         y="53.715641"
         style="font-style:normal;font-variant:normal;font-weight:normal;font-stretch:normal;font-family:BankGothic;-inkscape-font-specification:BankGothic;stroke-width:0.310513;fill:#ac0000;fill-opacity:1;">INDUSTRIES</tspan></text>
  </g>
</svg>
